<?xml version="1.0" encoding="utf-8"?>
<!-- Generator: Adobe Illustrator 16.0.0, SVG Export Plug-In . SVG Version: 6.00 Build 0)  -->
<!DOCTYPE svg PUBLIC "-//W3C//DTD SVG 1.1//EN" "http://www.w3.org/Graphics/SVG/1.1/DTD/svg11.dtd">
<svg version="1.1" id="Layer_1" xmlns="http://www.w3.org/2000/svg" xmlns:xlink="http://www.w3.org/1999/xlink" x="0px" y="0px"
	 width="80px" height="52.047px" viewBox="0 0 80 52.047" enable-background="new 0 0 80 52.047" xml:space="preserve">
<path fill="#FFFFFF" d="M31.034,11.171V9.845c0-1.358-1.359-1.358-1.359-1.358h-1.327c-1.359,0-1.359,1.358-1.359,1.358v1.327
	c0,1.357,1.359,1.357,1.359,1.357h1.327C31.034,12.529,31.034,11.171,31.034,11.171 M42.172,13.707c0,0.012-0.034,1.172-0.805,1.941
	L29.504,27.511c-0.142,0.142-1.392,1.448-1.392,3.362v4.197c0,1.336,0.965,2.753,2.752,2.753h3.896
	c0.383,0.021,0.383,0.169,0.383,0.357v10.952c0,0-0.011,0.043-0.022,0.076c-0.015,0-0.034,0.004-0.056,0.004h-4.199
	c0,0-0.041-0.012-0.076-0.023c-0.001-0.014-0.002-0.031-0.002-0.053v-3.926c0-1.217-0.806-3.027-3.029-3.027h-17.71
	c-1.216,0-3.029,0.807-3.029,3.027v3.926c0,0-0.01,0.041-0.021,0.072c-0.015,0.004-0.034,0.004-0.056,0.004H3.047
	c-0.374-0.018-0.374-0.154-0.372-0.346l0.067-10.957c0,0,0.011-0.045,0.024-0.081c0.016-0.003,0.036-0.005,0.062-0.005h3.839
	c1.218,0,3.029-0.805,3.029-3.026v-17.71c0-0.011,0.033-1.173,0.804-1.94L22.169,3.479c0.008-0.009,0.852-0.805,1.941-0.805h17.708
	c0.354,0,0.354,0.197,0.354,0.354V13.707z M43.26,17.539c1.542-1.543,1.586-3.604,1.586-3.833V3.028C44.849,0.807,43.036,0,41.82,0
	H24.11c-2.184,0-3.67,1.424-3.833,1.587L8.608,13.255c-1.544,1.543-1.589,3.604-1.589,3.833v17.71c0,0.188,0,0.335-0.353,0.354
	H2.827c-1.782,0-2.753,1.412-2.761,2.743L0,48.85c-0.006,1.082,0.443,1.762,0.819,2.143c0.849,0.852,1.98,0.895,2.198,0.895h3.924
	c1.788,0,2.754-1.416,2.754-2.75v-3.926c0-0.188,0-0.336,0.353-0.354h17.709c0.188,0,0.336,0,0.354,0.354v3.926
	c0,1.785,1.417,2.75,2.752,2.75h4.199c1.789,0,2.754-1.416,2.754-2.75v-4.279h4.278c0,0,0.04,0.014,0.074,0.021
	c0.002,0.016,0.004,0.035,0.004,0.057v4.201c0,1.334,0.964,2.75,2.753,2.75h3.922c1.219,0,3.029-0.805,3.029-3.029V38.181
	c0-1.219-0.808-3.029-3.029-3.029h-5.338c-0.739,0-1.337,0.599-1.337,1.336c0,0.739,0.598,1.337,1.337,1.337h5.338
	c0.188,0,0.337,0,0.353,0.356v10.676c0,0.189,0,0.338-0.353,0.355h-3.922c-0.022,0-0.042-0.004-0.057-0.004
	c-0.011-0.029-0.021-0.064-0.021-0.076v-4.199c0-1.787-1.417-2.752-2.753-2.752h-4.278v-4.003c0-2.222-1.812-3.028-3.03-3.028
	h-3.922c-0.023,0-0.043,0-0.056-0.001c-0.012-0.031-0.021-0.067-0.022-0.077v-4.198c0-0.818,0.611-1.471,0.608-1.471L43.26,17.539z
	 M80,48.857V38.178c0-1.216-0.808-3.026-3.029-3.026H66.292c-0.386,0-1.68,0.086-2.134,1.18c-0.215,0.519-0.27,1.337,0.693,2.298
	l3.55,3.552h-2.109c-1.094,0-1.942-0.805-1.942-0.805L52.682,29.709c-1.544-1.542-3.604-1.589-3.833-1.589h-12.37
	c-0.738,0-1.336,0.602-1.336,1.339s0.598,1.336,1.336,1.336h12.37c0.011,0,1.173,0.036,1.942,0.805L62.459,43.27
	c0.163,0.16,1.65,1.588,3.833,1.588h4.784l2.031,2.029c0.522,0.523,1.369,0.523,1.891,0c0.522-0.521,0.522-1.367,0-1.889
	l-2.42-2.422c0-0.002-0.002-0.002-0.003-0.002l-4.745-4.748h9.142c0.188,0,0.336,0,0.354,0.354v10.68c0,0.189,0,0.334-0.354,0.352
	H59.261c-1.095,0-1.94-0.803-1.94-0.803l-2.318-2.322c-0.522-0.521-1.371-0.521-1.893,0c-0.521,0.525-0.521,1.369,0,1.893
	l2.318,2.32c0.163,0.162,1.65,1.586,3.833,1.586h17.71C78.189,51.887,80,51.082,80,48.857"/>
<g>
</g>
<g>
</g>
<g>
</g>
<g>
</g>
<g>
</g>
<g>
</g>
<g>
</g>
<g>
</g>
<g>
</g>
<g>
</g>
<g>
</g>
<g>
</g>
<g>
</g>
<g>
</g>
<g>
</g>
</svg>
