<?xml version="1.0" standalone="no"?>
<!DOCTYPE svg PUBLIC "-//W3C//DTD SVG 20010904//EN"
 "http://www.w3.org/TR/2001/REC-SVG-20010904/DTD/svg10.dtd">
<svg version="1.0" xmlns="http://www.w3.org/2000/svg"
 width="400.000000pt" height="400.000000pt" viewBox="0 0 400.000000 400.000000"
 preserveAspectRatio="xMidYMid meet">
<metadata>
Created by potrace 1.14, written by Peter Selinger 2001-2017
</metadata>
<g transform="translate(0.000000,400.000000) scale(0.100000,-0.100000)"
fill="#000000" stroke="none">
<path d="M1953 3938 c-50 -79 -160 -310 -213 -443 -23 -60 -45 -116 -49 -124
-4 -7 -36 -25 -72 -40 -251 -101 -550 -339 -682 -541 -97 -149 -227 -455 -227
-534 0 -18 -7 -55 -14 -82 -19 -61 -42 -200 -55 -325 -9 -82 -16 -105 -46
-155 -44 -72 -56 -115 -45 -155 12 -42 47 -95 75 -116 16 -12 27 -32 31 -58 8
-56 52 -201 75 -255 55 -124 230 -333 320 -381 17 -9 16 -12 -14 -38 -17 -15
-59 -47 -92 -72 -165 -120 -375 -307 -424 -375 -29 -41 -38 -37 -22 8 6 18 8
28 3 23 -29 -32 -39 -131 -23 -225 l8 -45 2 60 c2 113 11 129 144 258 66 64
124 114 127 110 4 -5 12 -51 19 -103 17 -135 71 -320 93 -320 11 0 12 -2 -21
97 -16 48 -39 146 -51 218 l-22 130 34 28 c18 15 100 73 182 128 148 98 151
100 195 93 79 -11 80 -19 5 -56 -38 -19 -89 -47 -113 -64 -24 -16 -53 -34 -64
-41 -18 -10 -2 -20 144 -91 193 -93 249 -114 469 -181 182 -54 490 -112 490
-92 0 10 -50 21 -95 21 -44 0 -290 55 -385 86 -41 13 -122 39 -180 58 -117 38
-422 184 -414 198 9 14 80 57 167 100 90 45 83 45 262 6 73 -16 104 -27 114
-42 50 -71 175 -142 333 -190 134 -41 190 -43 271 -12 38 14 82 37 99 51 57
48 58 26 1 -52 -31 -43 -70 -98 -87 -122 -17 -25 -58 -79 -91 -121 -33 -41
-73 -92 -88 -113 l-28 -37 169 0 c198 0 177 -16 188 142 6 82 9 96 23 91 14
-4 14 -3 1 9 -21 18 -14 69 8 61 13 -4 12 -2 -3 10 -14 11 -19 25 -17 53 3 46
7 51 27 34 8 -7 15 -8 15 -4 0 5 -9 15 -20 22 -11 7 -20 21 -20 31 0 27 38 71
62 71 12 0 36 11 54 25 18 14 36 25 39 25 19 0 -12 -61 -53 -104 -46 -49 -35
-47 22 3 l29 26 -6 -25 c-3 -14 -8 -59 -12 -100 -9 -110 -11 -115 -55 -144
-22 -14 -40 -31 -40 -37 0 -6 17 4 38 21 l37 31 3 -27 c3 -22 -5 -35 -35 -62
-34 -30 -35 -31 -5 -12 l32 21 0 -24 c0 -16 -8 -28 -25 -35 -14 -6 -25 -17
-25 -23 0 -8 7 -6 18 4 10 10 22 17 25 17 15 0 6 -49 -14 -74 -11 -14 -16 -26
-10 -26 6 0 11 6 11 13 0 9 2 9 9 -1 6 -10 47 -12 182 -9 153 3 181 6 234 27
85 33 142 32 188 -3 31 -24 45 -27 106 -27 l71 0 0 48 c0 62 -26 104 -94 147
-30 19 -59 35 -64 35 -19 0 -42 38 -42 68 0 43 -16 82 -50 117 -67 71 -100
114 -100 132 0 12 25 38 68 71 129 99 301 314 374 468 111 237 141 338 204
669 40 210 39 353 -4 560 -43 205 -80 314 -168 490 -83 168 -155 263 -276 365
-87 73 -214 158 -288 192 -86 41 -265 81 -328 75 -49 -5 -56 -3 -100 30 -26
20 -49 40 -52 44 -3 5 -60 64 -126 131 -139 143 -198 215 -215 263 -14 37 -23
43 -36 23z m33 -70 c27 -54 122 -166 250 -295 l120 -122 -80 6 c-140 9 -319
-11 -416 -47 -135 -49 -124 -49 -118 -3 9 67 199 493 220 493 4 0 15 -15 24
-32z m420 -443 c19 -14 46 -26 61 -26 16 0 53 0 83 0 63 1 172 -27 256 -64 95
-42 250 -152 330 -234 332 -339 490 -964 358 -1417 -14 -49 -27 -90 -29 -92
-2 -3 -23 12 -46 32 -24 20 -46 36 -51 36 -4 0 -9 89 -10 198 -2 189 -2 192
-8 67 -4 -101 -7 -120 -12 -85 -4 25 -23 96 -43 158 -25 79 -37 135 -38 185
-2 56 -9 86 -33 137 -35 74 -117 206 -144 229 -9 9 -35 59 -58 111 -50 116
-230 490 -244 507 -7 9 -49 -29 -161 -144 -84 -86 -224 -231 -313 -321 l-160
-165 -59 94 c-32 52 -64 101 -71 109 -19 23 -155 294 -203 405 -24 55 -45 101
-46 103 -3 3 -120 -79 -301 -210 -252 -183 -433 -356 -622 -593 -56 -70 -102
-126 -102 -124 0 24 123 300 170 383 124 216 331 402 610 547 90 47 184 89
199 89 4 0 37 13 72 29 102 46 195 62 389 67 96 3 176 7 179 10 8 7 13 5 47
-21z m-641 -227 c18 -59 210 -434 267 -520 35 -53 71 -110 80 -127 9 -17 23
-31 30 -31 15 0 185 172 448 452 91 97 168 177 172 177 8 1 268 -526 268 -544
0 -2 -28 16 -63 39 -80 53 -189 89 -276 90 -84 1 -193 -40 -259 -98 -126 -111
-193 -309 -163 -481 22 -125 79 -199 202 -260 191 -97 423 -99 593 -7 58 32
153 124 172 167 9 21 14 26 18 15 87 -238 100 -341 66 -517 -29 -153 -50 -220
-120 -375 -65 -144 -120 -226 -209 -313 -66 -65 -104 -91 -196 -135 -106 -50
-183 -70 -323 -85 -221 -24 -389 -17 -792 30 -113 13 -257 27 -320 30 -201 11
-302 55 -436 189 -92 93 -118 134 -172 267 -75 184 -85 238 -86 479 -1 185 2
231 22 335 12 66 27 147 33 180 22 123 45 170 144 295 135 169 266 301 432
437 131 106 438 331 455 332 4 1 10 -9 13 -21z m1061 -507 c77 -23 135 -63
227 -154 59 -59 82 -92 126 -180 69 -140 77 -205 36 -286 -60 -120 -172 -194
-327 -217 -152 -23 -272 -5 -405 58 -96 46 -162 111 -182 179 -25 81 -26 196
-3 284 43 167 135 275 272 320 86 29 153 28 256 -4z m-2176 -975 c0 -7 -12
-21 -26 -31 -27 -18 -26 -7 4 28 18 21 22 21 22 3z m-54 -93 c-2 -21 -1 -28 1
-15 2 12 9 22 14 22 6 0 8 -12 4 -29 -3 -17 -2 -32 4 -36 6 -3 8 -17 5 -31 -4
-17 -1 -26 10 -30 16 -6 23 -44 8 -44 -23 0 -72 84 -72 124 0 23 19 76 27 76
2 0 2 -17 -1 -37z m2816 -13 c42 -35 63 -87 54 -135 -10 -51 -79 -147 -124
-173 -87 -48 -97 -16 -17 53 31 26 54 50 51 53 -3 2 -14 -6 -25 -19 -25 -29
-28 -13 -4 20 10 16 12 21 3 16 -10 -6 -11 -4 -5 11 5 10 10 38 13 62 2 23 8
42 12 42 14 0 20 -30 10 -55 -6 -16 -6 -25 0 -25 15 0 28 62 18 90 -5 14 -18
32 -29 40 -13 10 -18 22 -13 33 8 23 14 22 56 -13z m-2762 -21 c0 -11 -4 -18
-10 -14 -5 3 -7 12 -3 20 7 21 13 19 13 -6z m2680 -114 c0 -14 -4 -25 -9 -25
-4 0 -6 11 -3 25 2 14 6 25 8 25 2 0 4 -11 4 -25z m60 -202 c-10 -21 -35 -76
-54 -122 -44 -104 -80 -161 -175 -276 -103 -124 -261 -280 -248 -243 10 28 -6
29 -34 2 -26 -25 -27 -25 -34 -5 -3 11 -18 30 -33 42 -15 12 -22 23 -16 26 6
2 45 24 87 49 51 31 103 74 156 130 81 87 120 149 183 294 27 61 42 85 55 86
32 2 91 24 103 40 23 27 29 14 10 -23z m-1742 -623 c24 0 32 -3 24 -9 -21 -13
-85 -8 -90 8 -3 10 0 12 12 8 10 -4 34 -7 54 -7z m79 -31 l13 -24 0 23 c0 19
5 23 27 20 19 -2 29 -10 31 -23 2 -11 9 -24 14 -30 7 -7 9 -1 4 18 -9 36 3 34
44 -8 18 -18 36 -33 39 -33 21 5 72 -17 85 -38 9 -13 22 -24 28 -24 6 0 3 9
-7 20 -19 21 -19 21 25 14 29 -5 55 -17 73 -36 16 -15 34 -28 40 -28 7 0 -4
14 -23 30 -19 16 -33 30 -30 30 33 7 45 6 68 -6 15 -8 34 -14 42 -13 8 0 2 7
-15 14 l-30 13 28 11 c16 6 40 11 55 11 21 0 24 2 12 10 -12 8 -11 10 8 11 66
3 93 2 98 -4 6 -6 -49 -92 -67 -102 -6 -4 -7 3 -3 19 4 16 2 26 -5 26 -6 0
-11 -12 -11 -27 0 -24 -24 -63 -40 -63 -4 0 -5 15 -3 33 l3 32 -12 -35 c-7
-19 -21 -36 -30 -38 -15 -3 -17 2 -13 30 l5 33 -16 -37 c-12 -27 -24 -39 -46
-43 -39 -9 -43 -3 -23 34 21 41 12 40 -14 -2 l-21 -34 -70 15 c-38 9 -70 19
-70 23 0 5 12 15 28 23 15 8 23 15 19 16 -5 0 -21 -7 -37 -16 -26 -16 -31 -15
-99 11 -67 27 -96 45 -72 45 6 0 11 5 11 11 0 8 -4 8 -15 -1 -12 -10 -23 -7
-57 14 -47 28 -88 61 -88 70 0 3 13 6 30 6 16 0 35 7 42 15 17 19 30 14 45
-16z m773 -34 c0 -10 -65 -45 -82 -45 -28 0 -21 15 15 33 31 15 67 22 67 12z"/>
<path d="M1438 2910 c-95 -16 -232 -116 -322 -233 -60 -79 -123 -200 -157
-298 -24 -72 -29 -203 -10 -254 30 -75 139 -168 244 -206 121 -44 320 -49 442
-11 68 21 231 110 279 153 62 54 126 203 126 294 0 95 -45 206 -145 361 -102
157 -265 226 -457 194z m203 -24 c73 -22 141 -61 180 -103 105 -112 199 -316
199 -434 0 -31 -11 -79 -31 -130 -38 -98 -107 -171 -219 -230 -156 -82 -266
-101 -452 -76 -118 16 -166 35 -248 100 -79 62 -111 112 -117 185 -16 178 129
465 299 595 151 114 244 136 389 93z"/>
<path d="M1500 2563 c-39 -50 -6 -123 56 -123 56 0 81 49 52 103 -28 53 -75
61 -108 20z m84 -18 c22 -33 11 -73 -22 -86 -32 -12 -62 13 -62 52 0 56 55 78
84 34z"/>
<path d="M1778 1824 c-3 -3 -43 -6 -89 -7 l-84 -2 -27 -105 c-16 -64 -29 -144
-31 -205 -3 -55 -11 -121 -17 -148 -8 -31 -10 -80 -6 -140 3 -50 7 -99 7 -107
1 -8 -2 -75 -6 -148 l-8 -133 35 6 c22 4 38 3 42 -4 12 -19 67 -12 180 25 121
39 126 40 441 16 55 -4 105 -6 112 -4 6 2 14 20 18 40 3 20 20 91 37 157 36
143 32 121 58 325 19 147 43 310 57 380 5 25 4 25 -69 25 -40 0 -166 8 -280
18 -208 17 -360 22 -370 11z m-162 -80 c-11 -37 -15 -43 -15 -22 -1 30 17 84
25 75 3 -2 -1 -27 -10 -53z m479 44 c39 -5 114 -16 168 -25 l99 -17 18 -40
c32 -70 40 -117 40 -235 0 -88 -6 -137 -24 -210 -13 -53 -30 -130 -36 -171 -7
-41 -18 -89 -25 -107 -15 -37 -23 -39 -185 -48 -123 -7 -306 -28 -440 -49
-135 -22 -125 -26 -138 52 -15 89 -18 174 -8 307 4 61 9 155 10 210 3 94 7
118 63 317 3 11 18 18 42 21 62 7 342 4 416 -5z m383 -23 c2 -1 -6 -38 -18
-81 -11 -43 -21 -96 -21 -118 -1 -33 -3 -27 -10 25 -5 36 -18 86 -29 111 -20
46 -34 55 -105 71 -11 3 25 2 80 -1 55 -2 101 -6 103 -7z m-884 -114 c-4 -17
-9 -30 -11 -27 -3 2 -2 19 2 36 4 17 9 30 11 27 2 -2 1 -18 -2 -36z m-49 -388
c-4 -46 -9 -82 -11 -80 -3 3 -2 47 2 98 4 52 9 88 12 81 2 -8 1 -52 -3 -99z
m18 -405 c-14 -24 -23 1 -22 65 l1 72 13 -65 c7 -36 11 -68 8 -72z m761 54
c-5 -27 -10 -30 -33 -27 -14 2 -73 9 -131 16 -58 6 -106 12 -108 13 -1 2 55 6
125 10 71 4 132 11 137 16 14 14 17 7 10 -28z m-627 -64 c-38 -10 -76 -17 -84
-14 -24 10 -7 19 45 27 93 13 109 8 39 -13z"/>
<path d="M2706 2468 c-32 -46 -8 -118 39 -118 15 0 31 10 41 25 42 65 -36 156
-80 93z m62 -44 c4 -48 -18 -75 -43 -54 -21 18 -27 44 -15 74 7 20 16 27 33
24 18 -2 23 -10 25 -44z"/>
<path d="M1713 583 c-18 -2 -33 -9 -33 -14 0 -11 46 -4 85 12 l20 8 -20 -1
c-11 -1 -35 -3 -52 -5z"/>
<path d="M1788 533 c7 -3 16 -2 19 1 4 3 -2 6 -13 5 -11 0 -14 -3 -6 -6z"/>
<path d="M1861 499 c-40 -16 -17 -20 25 -5 22 8 30 15 19 15 -11 0 -31 -5 -44
-10z"/>
<path d="M2031 459 c-13 -17 -21 -32 -19 -35 3 -2 15 10 27 27 13 17 21 32 19
35 -3 2 -15 -10 -27 -27z"/>
<path d="M2400 501 c0 -5 5 -13 10 -16 6 -3 10 -2 10 4 0 5 -4 13 -10 16 -5 3
-10 2 -10 -4z"/>
<path d="M2446 377 c-30 -40 -33 -46 -12 -27 33 30 71 80 59 79 -4 0 -26 -24
-47 -52z"/>
<path d="M2455 312 c-42 -36 -48 -55 -7 -23 23 18 42 35 42 37 0 9 -16 3 -35
-14z"/>
<path d="M2370 196 c0 -2 7 -7 16 -10 8 -3 12 -2 9 4 -6 10 -25 14 -25 6z"/>
<path d="M2360 122 c0 -5 7 -15 15 -22 8 -7 15 -9 15 -6 0 4 -7 14 -15 22 -8
9 -15 11 -15 6z"/>
</g>
</svg>
